<?xml version="1.0" encoding="UTF-8" standalone="no"?>
<svg
   xmlns:dc="http://purl.org/dc/elements/1.1/"
   xmlns:cc="http://creativecommons.org/ns#"
   xmlns:rdf="http://www.w3.org/1999/02/22-rdf-syntax-ns#"
   xmlns:svg="http://www.w3.org/2000/svg"
   xmlns="http://www.w3.org/2000/svg"
   xmlns:sodipodi="http://sodipodi.sourceforge.net/DTD/sodipodi-0.dtd"
   xmlns:inkscape="http://www.inkscape.org/namespaces/inkscape"
   sodipodi:docname="iso-negativo.svg"
   inkscape:version="1.0 (1.0+r73+1)"
   id="svg1814"
   version="1.1"
   viewBox="0 0 154.24307 23.451609"
   height="23.451609mm"
   width="154.24307mm">
  <defs
     id="defs1808" />
  <sodipodi:namedview
     inkscape:window-maximized="1"
     inkscape:window-y="0"
     inkscape:window-x="0"
     inkscape:window-height="699"
     inkscape:window-width="1366"
     showgrid="false"
     inkscape:document-rotation="0"
     inkscape:current-layer="layer1"
     inkscape:document-units="mm"
     inkscape:cy="130.00282"
     inkscape:cx="216.54205"
     inkscape:zoom="0.98994949"
     inkscape:pageshadow="2"
     inkscape:pageopacity="0.0"
     borderopacity="1.0"
     bordercolor="#666666"
     pagecolor="#ffffff"
     id="base" />
  <metadata
     id="metadata1811">
    <rdf:RDF>
      <cc:Work
         rdf:about="">
        <dc:format>image/svg+xml</dc:format>
        <dc:type
           rdf:resource="http://purl.org/dc/dcmitype/StillImage" />
        <dc:title></dc:title>
      </cc:Work>
    </rdf:RDF>
  </metadata>
  <g
     transform="translate(227.73098,-72.918861)"
     id="layer1"
     inkscape:groupmode="layer"
     inkscape:label="Capa 1">
    <g
       style="fill:#ffffff;fill-opacity:1"
       transform="matrix(0.16062131,0,0,0.16062131,-151.70224,65.980572)"
       id="g1779"
       inkscape:label="Capa 1">
      <path
         d="m -400.34136,43.200258 c -40.2993,0 -73.0002,32.7023 -73.0002,73.001702 0,40.2993 32.7009,73.0002 73.0002,73.0002 13.2938,0 25.7587,-3.5606 36.4965,-9.7767 v 0 0 c 10.7386,6.2153 23.2038,9.7752 36.497,9.7752 40.2644,0 72.9399,-32.6452 72.9966,-72.8964 0,-0.01 0,-0.01 0,-0.014 a 1.4999999,1.4999999 0 0 0 0,-0.09 1.4999999,1.4999999 0 0 0 -0.01,-0.1229 c -0.067,-40.242202 -32.7388,-72.878802 -72.9966,-72.878802 -13.2936,0 -25.7592,3.5603 -36.498,9.7761 v -10e-4 0 c -10.7379,-6.21629 -23.2027,-9.77709 -36.4965,-9.77709 z m 0,2.9998 c 12.1706,0 23.6117,3.1035 33.5789,8.5596 -0.2013,0.1295 -0.4006,0.2615 -0.6005,0.3928 -0.1136,0.074 -0.228,0.1482 -0.3411,0.2232 -7.9047,5.244 -14.5982,11.902 -19.8277,19.5249 -0.013,0.019 -0.026,0.039 -0.04,0.058 -0.1483,0.216599 -0.2949,0.4341 -0.4408,0.652198 -0.082,0.121801 -0.1635,0.243602 -0.2444,0.365901 -0.082,0.1237 -0.1625,0.247901 -0.2434,0.372099 -0.1595,0.244002 -0.3178,0.489202 -0.4744,0.735302 -2.7679,4.350099 -5.0861,9.0136 -6.8937,13.9232 9.5088,-5.213101 20.4222,-8.1799 32.027,-8.1799 11.6,0 22.5095,2.964201 32.0156,8.173201 -1.1186,-3.037602 -2.4307,-5.982001 -3.9263,-8.815001 -0.022,-0.042 -0.045,-0.083 -0.067,-0.1251 -0.1374,-0.258998 -0.2761,-0.517398 -0.4165,-0.7746 -0.071,-0.1295 -0.1416,-0.259 -0.213,-0.388099 -0.095,-0.170701 -0.1898,-0.3411 -0.2857,-0.511 -0.1195,-0.212201 -0.2402,-0.423701 -0.3618,-0.634701 -0.042,-0.073 -0.084,-0.145799 -0.1266,-0.218501 -0.1641,-0.282498 -0.3302,-0.563599 -0.4981,-0.843899 0,0 0,-0.01 -0.01,-0.014 0,-0.01 -0.01,-0.01101 -0.01,-0.01701 -5.704,-9.51149 -13.5777,-17.73629 -23.1826,-23.89729 9.9675,-5.4566 21.4088,-8.5607 33.5799,-8.5607 38.678,0 70.0019,31.323899 70.0019,70.001902 0,38.6781 -31.3239,70.0004 -70.0019,70.0004 -12.1709,0 -23.612,-3.1035 -33.5794,-8.5597 9.611,-6.165 17.4887,-14.3965 23.1934,-23.9158 0.1694,-0.2826 0.3369,-0.5663 0.5023,-0.8511 0.046,-0.079 0.091,-0.157 0.137,-0.2357 0.118,-0.2049 0.2348,-0.4104 0.3509,-0.6165 0.1055,-0.1869 0.2102,-0.3743 0.3142,-0.5622 0.054,-0.098 0.1076,-0.1959 0.1612,-0.2941 0.152,-0.2777 0.3022,-0.5566 0.4506,-0.8366 0.02,-0.037 0.039,-0.075 0.059,-0.1121 1.4961,-2.8339 2.8088,-5.7794 3.9279,-8.8181 -9.5059,5.2099 -20.4158,8.1747 -32.0166,8.1747 -11.6056,0 -22.5194,-2.9673 -32.0286,-8.1809 1.9199,5.215 4.4169,10.1518 7.4156,14.7309 0.058,0.089 0.1153,0.1777 0.1736,0.2661 0.1079,0.1632 0.2175,0.3251 0.3266,0.4873 0.1201,0.1789 0.2396,0.3581 0.3613,0.5359 0.041,0.06 0.082,0.1188 0.1235,0.1783 5.2203,7.5851 11.8918,14.2112 19.7652,19.4345 0.1312,0.087 0.2639,0.1726 0.3958,0.2589 0.1818,0.1192 0.3628,0.2394 0.5457,0.3571 -9.9672,5.4559 -21.4082,8.5591 -33.5788,8.5591 -38.678,0 -69.9999,-31.3223 -69.9999,-70.0004 0,-38.678003 31.3219,-70.001902 69.9999,-70.001902 z m 36.5001,38.67 c -12.0702,0 -23.3636,3.3051 -33.0321,9.0542 -2.1343,6.659502 -3.3391,13.734002 -3.4581,21.071602 -0.01,0.4013 -0.01,0.8033 -0.01,1.2061 0,0.4025 0,0.8046 0.01,1.2061 0.119,7.3382 1.3254,14.4127 3.4602,21.0726 9.6681,5.7487 20.9607,9.0538 33.03,9.0538 12.0651,0 23.3543,-3.3027 33.0203,-9.0475 1.0775,-3.3604 1.9207,-6.8256 2.5042,-10.3782 2e-4,-10e-4 2.7e-4,0 5.3e-4,0 0.6441,-3.8988 0.9756,-7.8775 0.9757,-11.9027 -10e-5,-4.0341 -0.3334,-8.0214 -0.9804,-11.9284 -0.5833,-3.545 -1.4249,-7.002901 -2.5,-10.3565 -9.666,-5.744602 -20.9552,-9.047001 -33.0203,-9.047001 z m -0.064,16.366902 a 14.94299,14.94299 0 0 1 0.064,0 14.94299,14.94299 0 0 1 14.9433,14.9428 14.94299,14.94299 0 0 1 -14.9433,14.9432 14.94299,14.94299 0 0 1 -14.9427,-14.9432 14.94299,14.94299 0 0 1 14.8792,-14.9428 z"
         style="color:#000000;font-style:normal;font-variant:normal;font-weight:normal;font-stretch:normal;font-size:medium;line-height:normal;font-family:sans-serif;font-variant-ligatures:normal;font-variant-position:normal;font-variant-caps:normal;font-variant-numeric:normal;font-variant-alternates:normal;font-feature-settings:normal;text-indent:0;text-align:start;text-decoration:none;text-decoration-line:none;text-decoration-style:solid;text-decoration-color:#000000;letter-spacing:normal;word-spacing:normal;text-transform:none;writing-mode:lr-tb;direction:ltr;text-orientation:mixed;dominant-baseline:auto;baseline-shift:baseline;text-anchor:start;white-space:normal;shape-padding:0;clip-rule:nonzero;display:inline;overflow:visible;visibility:visible;isolation:auto;mix-blend-mode:normal;color-interpolation:sRGB;color-interpolation-filters:linearRGB;solid-color:#000000;solid-opacity:1;vector-effect:none;fill:#ffffff;fill-opacity:1;fill-rule:nonzero;stroke:none;stroke-width:3;stroke-linecap:round;stroke-linejoin:miter;stroke-miterlimit:4;stroke-dasharray:none;stroke-dashoffset:0;stroke-opacity:1;color-rendering:auto;image-rendering:auto;shape-rendering:auto;text-rendering:auto;enable-background:accumulate"
         id="path1773"
         inkscape:connector-curvature="0" />
      <path
         d="M -218.21806,62.684758 V 164.85269 h 11.81531 V 92.431788 l 73.67249,77.286222 V 67.550108 h -11.81529 v 72.420872 z m 329.1613,0 V 164.85269 h 11.81529 V 92.431788 l 73.67201,77.286222 V 67.550108 h -11.81532 v 72.420872 z m 142.47863,0 -45.17602,102.167932 h 13.20538 l 12.34083,-29.191 h 39.1945 l 12.4065,29.191 h 13.20538 z m -320.125679,3.47522 c -7.04289,0 -13.57579,1.29755 -19.5993,3.892291 -6.02353,2.502059 -11.25945,6.023398 -15.707601,10.564199 -4.44812,4.448151 -7.92313,9.72992 -10.42519,15.84606 -2.4094,6.023562 -3.61426,12.603322 -3.61426,19.738872 0,7.04286 1.20486,13.62212 3.61426,19.73831 2.50206,6.11614 5.97707,11.44479 10.42519,15.9856 4.448151,4.44812 9.684071,7.96948 15.707601,10.5642 6.02351,2.50214 12.55641,3.75327 19.5993,3.75327 7.13553,0 13.66901,-1.25113 19.59984,-3.75327 6.02353,-2.59472 11.25944,-6.11608 15.70757,-10.5642 4.44815,-4.54081 7.87677,-9.86946 10.28618,-15.9856 2.50208,-6.11619 3.7533,-12.69545 3.7533,-19.73831 0,-7.13555 -1.25122,-13.71531 -3.7533,-19.738872 -2.40941,-6.116141 -5.83803,-11.397909 -10.28618,-15.84606 -4.44813,-4.540801 -9.68404,-8.06214 -15.70757,-10.564199 -5.93083,-2.594741 -12.46431,-3.892291 -19.59984,-3.892291 z m 66.02699043,1.39013 V 164.85269 H 25.733961 c 6.30151,0 11.90819,-1.01949 16.81965,-3.05821 5.00417,-2.13141 8.94254,-5.28209 11.81528,-9.45214 2.96543,-4.26281 4.44781,-9.59141 4.44781,-15.98559 0,-4.44815 -0.83357,-8.2939 -2.50166,-11.53729 -1.66804,-3.24345 -4.03138,-5.88428 -7.08946,-7.92303 -2.96545,-2.1314 -6.44046,-3.707 -10.42525,-4.72633 -0.57758,-0.14774 -1.16379,-0.28345 -1.75696,-0.40979 0.84426,-0.25185 1.66193,-0.53213 2.45202,-0.84129 4.3555,-1.66807 7.7378,-4.12359 10.1472,-7.36698 2.40943,-3.24348 3.61423,-7.135502 3.61423,-11.676303 0,-4.170129 -0.69508,-7.784179 -2.08515,-10.842228 -1.39004,-3.05808 -3.38265,-5.560462 -5.97742,-7.50652 -2.50205,-2.038749 -5.51362,-3.521131 -9.03509,-4.447801 -3.52142,-1.01939 -7.45982,-1.52911 -11.81526,-1.52908 z m 77.56426957,0 v 97.302582 h 11.81528 V 67.550108 Z m 233.526299,0 v 97.302582 h 11.81529 v -38.92116 h 11.84579 l 27.07537,38.92116 h 14.5955 l -28.99307,-40.01048 c 2.43171,-0.57092 4.72927,-1.36596 6.89155,-2.3859 5.00417,-2.40941 8.94255,-5.79173 11.81529,-10.1472 2.96542,-4.44812 4.4478,-9.63723 4.4478,-15.568032 0,-6.02353 -1.48238,-11.213089 -4.4478,-15.568559 -2.87274,-4.35546 -6.81112,-7.691962 -11.81529,-10.00868 -4.91146,-2.409401 -10.51814,-3.613761 -16.81964,-3.613731 h -14.5955 z m 77.84227,0 v 97.302582 h 11.81529 V 67.550108 Z m 27.80038,0 28.21789,46.288112 -31.69261,51.01447 h 13.89991 l 23.6311,-40.72827 22.93557,40.72827 H 486.9487 L 456.08963,113.83822 484.86357,67.550108 H 470.9631 L 450.25173,103.55204 429.95684,67.550108 Z M -66.703809,77.975299 c 5.28215,0 10.14738,0.97313 14.59551,2.919198 4.54078,1.853401 8.4792,4.494292 11.81528,7.923033 3.33611,3.428809 5.88481,7.5062 7.64553,12.23232 1.85338,4.63346 2.78019,9.68406 2.78019,15.15155 0,5.46751 -0.92681,10.56439 -2.78019,15.29053 -1.76072,4.63346 -4.30942,8.66458 -7.64553,12.09331 -3.33608,3.42879 -7.2745,6.11603 -11.81528,8.06204 -4.44813,1.85341 -9.31336,2.78019 -14.59551,2.78019 -5.28216,0 -10.19317,-0.92678 -14.73395,-2.78019 -4.44813,-1.94601 -8.34023,-4.63325 -11.6763,-8.06204 -3.33614,-3.42873 -5.93117,-7.45985 -7.784571,-12.09331 -1.76067,-4.72614 -2.64116,-9.82302 -2.64116,-15.29053 0,-5.46749 0.88049,-10.51809 2.64116,-15.15155 1.853401,-4.72612 4.448431,-8.803511 7.784571,-12.23232 3.33607,-3.428741 7.22817,-6.069632 11.6763,-7.923033 4.54078,-1.946068 9.45179,-2.919198 14.73395,-2.919198 z m 77.84227,0 h 13.20544 c 4.91146,0 8.9889,1.29754 12.23229,3.892259 3.24342,2.50208 4.86535,6.069751 4.86535,10.70324 0,3.058131 -0.74145,5.652611 -2.22414,7.784012 -1.4827,2.13141 -3.52171,3.75333 -6.11646,4.86535 -2.59471,1.11199 -5.51362,1.66809 -8.75704,1.66809 h -13.20544 z m 311.090579,0 h 14.5955 c 4.1701,0 7.8305,0.74141 10.98124,2.22414 3.24342,1.48267 5.74527,3.613809 7.50599,6.39394 1.85338,2.780059 2.78019,6.162889 2.78019,10.147699 0,3.984732 -0.92681,7.367112 -2.78019,10.147172 -1.76072,2.78013 -4.26257,4.91127 -7.50599,6.39395 -3.15074,1.48272 -6.81114,2.22414 -10.98124,2.22414 h -14.5955 z m -68.80717,11.537289 14.90607,35.028842 H 238.55403 Z M 11.138461,117.17446 h 14.5955 c 3.15074,0 6.02332,0.417 8.61807,1.25108 2.59476,0.74133 4.81912,1.89984 6.6725,3.47525 1.94603,1.57533 3.42839,3.52115 4.44777,5.83787 1.01936,2.31674 1.52908,4.95758 1.52908,7.92303 0,3.98473 -0.92628,7.36758 -2.77965,10.14772 -1.76073,2.78006 -4.2631,4.91117 -7.50653,6.39392 -3.15073,1.48265 -6.81114,2.22414 -10.98124,2.22414 h -14.5955 z"
         style="font-style:normal;font-variant:normal;font-weight:normal;font-stretch:normal;font-size:139.004px;line-height:1.25;font-family:Jost;-inkscape-font-specification:Jost;letter-spacing:0px;word-spacing:0px;fill:#ffffff;fill-opacity:1;stroke:none;stroke-width:3.47512"
         id="path1775"
         inkscape:connector-curvature="0" />
    </g>
  </g>
</svg>
